<svg xmlns="http://www.w3.org/2000/svg" viewBox="102 85 1002 1212"><path fill="currentColor" fill-rule="evenodd" d="M729,1276C730,1274 731,1274 748,1268C755,1266 762,1264 763,1263C764,1263 773,1259 782,1254C806,1244 824,1235 834,1229C839,1226 843,1224 844,1224C844,1224 874,1204 884,1197C889,1194 900,1186 910,1180C992,1124 1036,1070 1054,1002C1062,970 1063,924 1055,890C1055,886 1053,878 1052,872C1046,840 1036,808 1022,776C996,721 985,699 967,673C952,652 950,640 955,604C957,587 958,585 960,583C963,579 966,581 972,591C973,594 981,606 988,618C1030,685 1044,714 1062,770C1085,841 1091,910 1080,975C1072,1021 1067,1040 1049,1083C1038,1108 1034,1115 1017,1140C968,1214 903,1254 802,1273C777,1278 729,1280 729,1276ZM639,1274C632,1269 629,1269 619,1269C606,1270 603,1266 613,1261C622,1256 631,1249 637,1241C643,1234 646,1232 648,1232C649,1232 647,1237 645,1242C644,1247 644,1247 645,1249C648,1253 651,1253 669,1247C693,1239 702,1234 710,1223C720,1210 719,1223 709,1237C704,1244 691,1253 668,1265C662,1268 655,1273 653,1274C647,1278 646,1278 639,1274ZM428,1270C389,1263 362,1243 338,1202C326,1182 313,1143 311,1124C310,1113 309,1110 305,1111C302,1113 300,1116 298,1126C294,1143 283,1168 274,1180C247,1218 186,1217 155,1180C125,1144 116,1090 125,1010C132,954 155,892 185,848C199,826 201,826 190,848C128,973 131,1103 197,1135C209,1141 227,1142 240,1136C262,1127 279,1111 288,1090C297,1071 299,1063 300,1038C303,1009 305,983 308,968C310,962 311,954 311,952C320,886 346,823 382,781C401,758 416,753 428,766C444,784 441,808 418,872C416,877 414,884 413,888C404,912 399,922 395,922C393,922 393,919 397,907C399,900 402,891 403,887C404,883 405,876 406,872C408,864 410,843 409,837C408,832 403,826 399,826C389,823 369,847 357,878C329,952 319,1037 332,1093C347,1155 376,1186 427,1195C508,1210 624,1143 675,1052C701,1003 707,971 701,899C699,879 694,826 693,814C693,811 692,801 691,793C691,785 689,765 688,748C687,732 685,711 684,702C680,656 681,649 693,628C700,615 702,614 705,614C708,614 709,616 710,637C711,647 713,664 715,676C716,686 717,702 718,710C719,717 720,732 721,742C722,753 723,768 724,776C725,785 726,798 727,806C727,813 729,827 730,836C730,844 732,857 733,863C733,869 735,884 736,894C746,988 763,1029 801,1051C834,1070 879,1061 891,1032C896,1019 894,996 883,969C875,947 873,942 868,929C860,910 857,903 852,894C850,889 847,881 844,875C842,869 839,863 838,860C819,819 810,799 804,780C802,776 800,769 798,764C793,754 793,754 797,738C801,723 805,714 811,702C817,691 818,690 821,692C827,695 863,746 872,764C881,781 878,783 853,778C846,777 845,782 850,792C851,795 854,801 855,804C857,808 859,813 860,816C878,854 890,881 894,891C901,912 904,919 907,930C925,991 918,1063 892,1100C865,1138 812,1144 773,1113C764,1107 754,1095 748,1084C739,1070 727,1040 726,1031C724,1017 715,1018 712,1033C706,1060 678,1115 654,1148C622,1191 561,1239 520,1254C517,1254 515,1255 514,1256C512,1258 495,1263 480,1267C462,1271 442,1272 428,1270ZM686,1212C682,1209 682,1193 687,1182C693,1169 703,1156 708,1156C710,1156 709,1159 703,1168C691,1187 689,1192 693,1201C697,1210 693,1218 686,1212ZM452,1105C441,1099 429,1088 429,1085C429,1084 431,1079 433,1074C438,1065 441,1052 444,1031C445,1024 447,1014 448,1010C449,1005 450,999 450,997C451,990 458,970 460,969C462,969 461,976 459,990C454,1019 453,1045 456,1051C458,1054 468,1060 474,1062C480,1064 490,1062 496,1057C504,1052 506,1056 500,1069C495,1082 491,1089 484,1096C471,1108 463,1111 452,1105ZM534,1046C533,1044 533,1040 534,1033C536,1026 537,1024 541,1024C549,1024 559,1016 563,1008C567,1000 566,996 555,964C550,948 546,944 538,946C535,947 533,947 532,946C527,944 531,925 540,912C549,896 555,886 556,886C557,886 557,892 556,899C554,908 554,912 556,921C557,925 559,933 560,940C562,953 563,957 568,958C571,959 572,960 572,972C574,989 579,995 591,995C601,995 606,993 612,988C618,983 619,983 620,988C621,996 614,1009 605,1017C597,1025 591,1024 584,1015C578,1006 575,1007 567,1020C558,1037 540,1051 534,1046ZM217,1028C205,1016 207,984 222,954C230,938 231,939 225,960C217,994 217,1003 226,1010C230,1013 234,1012 239,1004C248,991 252,994 246,1010C238,1031 227,1038 217,1028ZM964,1028C964,1027 963,1014 963,999C962,964 961,945 958,930C957,924 956,914 955,910C954,905 953,895 952,888C950,882 949,874 948,871C948,868 947,862 946,858C945,854 943,845 943,839C942,832 940,824 940,821C939,818 938,812 937,807C936,802 935,793 934,786C932,779 930,769 930,764C926,740 922,721 921,718C920,715 914,683 912,674C911,670 910,660 908,652C903,622 901,611 900,602C897,586 892,558 891,554C891,551 889,545 889,538C888,532 886,523 885,516C884,510 882,500 881,494C880,487 878,477 877,470C873,450 873,452 883,429C886,423 889,416 889,414C891,410 895,406 896,406C897,407 900,411 911,431C913,433 917,441 921,447C930,461 946,493 946,496C946,501 933,499 919,492C909,487 908,489 913,510C915,518 917,527 917,531C918,535 920,544 921,550C926,571 929,588 930,599C931,604 933,612 933,615C935,623 940,654 942,678C945,703 949,735 951,750C956,782 959,804 961,816C961,824 962,832 963,834C964,839 969,889 971,914C973,933 973,1001 971,1012C969,1025 967,1031 964,1028ZM578,938C578,931 600,898 608,892C619,884 633,904 629,923C628,930 627,930 624,924C620,913 616,910 611,912C605,914 588,928 583,936C579,940 578,941 578,938ZM238,880C220,869 224,830 246,794C265,762 301,725 333,704C368,680 404,661 458,637C472,630 485,624 486,624C488,622 522,607 539,600C550,596 567,590 578,585C589,581 604,575 611,572C628,565 662,553 665,553C671,553 679,545 677,541C676,540 675,533 675,524C674,516 673,502 672,494C672,487 670,469 669,454C668,440 667,425 666,420C665,416 665,406 664,398C663,391 662,368 660,347C658,326 657,299 656,286C653,228 652,207 650,201C647,194 648,191 650,179C656,153 680,105 688,105C689,105 689,108 687,115C682,133 688,160 701,188C716,218 721,233 720,247C719,263 718,263 705,251C689,236 688,236 685,236C683,237 683,237 683,245C684,255 686,275 687,304C688,316 690,336 691,348C696,425 699,471 700,508C700,523 701,535 701,536C703,539 707,538 719,533C726,530 737,526 745,523C752,520 762,516 767,513C777,508 780,509 775,518C774,520 771,527 769,532C759,558 753,565 739,569C736,570 729,573 723,576C717,578 709,582 704,583C688,589 685,592 684,602C682,611 680,614 679,607C677,599 672,597 665,601C661,604 649,609 628,616C610,622 605,624 577,635C564,641 548,647 540,650C533,652 521,657 512,660C503,664 488,669 478,673C407,700 386,710 336,741C298,764 263,797 247,823C236,842 233,862 242,874C247,881 245,884 238,880ZM559,874C559,873 559,866 560,858C563,825 553,801 536,796C518,790 515,770 528,742C536,727 538,727 545,738C548,742 552,749 555,754C558,758 562,764 563,766C567,778 571,777 574,762C575,755 580,739 583,733C587,725 591,727 596,739C601,750 599,768 592,769C587,771 584,774 583,780C582,783 581,788 579,792C578,797 577,804 576,815C573,846 563,880 559,874ZM291,678C291,669 359,606 404,571C420,560 425,555 432,546C443,534 442,532 430,524C415,514 412,505 419,488C424,475 440,455 445,455C449,455 462,472 463,480C464,484 461,504 459,508C455,515 456,518 463,525C468,531 468,531 468,538C467,550 463,552 456,545C450,538 448,539 438,552C430,563 417,575 392,594C361,618 345,631 316,659C294,680 291,682 291,678ZM754,648C750,644 750,640 754,629C758,619 760,615 763,617C764,618 764,620 764,624C763,628 763,629 765,631C768,634 771,632 780,623C791,612 793,613 784,627C780,633 776,637 770,643C760,651 758,651 754,648ZM833,642C832,640 830,631 828,622C827,613 823,599 822,592C820,585 817,575 816,570C816,565 814,555 813,548C811,541 809,527 807,518C805,508 803,493 801,484C797,466 793,431 791,408C790,399 788,389 788,386C787,380 784,356 781,329C780,317 779,312 777,308C774,300 774,297 785,268C793,247 794,245 797,244C800,244 801,244 802,249C803,254 808,264 818,283C835,313 846,338 846,345C846,347 843,349 840,348C838,347 826,340 821,336C814,331 810,334 812,344C812,347 814,356 815,364C815,371 817,383 818,390C820,397 821,407 822,410C822,414 823,424 825,432C826,439 827,448 827,450C829,463 833,500 835,512C836,520 838,534 839,542C840,551 841,561 842,564C843,571 843,598 842,604C841,606 840,616 840,624C837,645 836,649 833,642ZM549,534C541,529 539,518 539,492C539,473 539,473 533,470C529,468 528,465 532,457C533,454 535,449 536,447C538,441 544,442 545,448C546,449 546,462 546,476C547,505 547,508 554,514C560,519 564,518 570,512C576,505 577,503 578,491C578,485 580,477 581,474L582,467L584,473C587,487 590,494 598,499C605,504 608,503 616,494C621,488 621,489 610,462C603,442 601,439 597,437C590,434 587,440 584,457C583,465 582,464 582,454C583,444 589,426 593,420C600,410 604,410 611,417C617,423 617,425 614,431C610,438 611,444 619,465C623,477 623,476 621,492C618,516 603,526 590,513C584,507 581,508 577,516C568,533 558,539 549,534ZM452,510C458,503 457,494 451,487C443,480 436,479 430,485C422,493 424,500 436,508C445,514 447,514 452,510ZM735,451C718,434 719,397 736,365C743,353 744,357 739,373C734,389 731,406 731,414C733,431 739,436 747,426C754,415 757,422 751,435C749,440 747,445 747,446C746,449 741,454 739,454C738,454 736,453 735,451ZM512,392C508,389 519,377 535,368C539,365 547,360 552,358C557,355 563,351 567,349C579,343 581,339 575,333C564,323 564,298 576,275C581,265 588,255 590,256C590,257 589,259 582,276C575,291 574,310 578,320C586,334 592,335 607,321C613,316 616,316 617,321C617,325 611,332 601,338C597,340 589,345 582,349C575,353 567,358 565,359C559,362 530,381 523,387C516,392 514,393 512,392Z"/></svg>